<?xml version="1.0" encoding="UTF-8"?>
<svg version="1.1" xmlns="http://www.w3.org/2000/svg" width="512" height="512">
<path d="M0 0 C1.25974136 -0.02251831 2.51948273 -0.04503662 3.81739807 -0.0682373 C9.62647222 -0.14479727 15.43567604 -0.19703617 21.24511719 -0.23535156 C24.28965237 -0.25743151 27.33292363 -0.29890386 30.37695312 -0.35839844 C47.4852097 -0.6846972 63.22299914 -0.90199129 78.78881836 7.22460938 C79.90305931 7.79035927 79.90305931 7.79035927 81.03981018 8.36753845 C89.69469717 12.79237788 97.48168136 17.76395503 104.78881836 24.22460938 C106.03211914 25.30548828 106.03211914 25.30548828 107.30053711 26.40820312 C109.83179677 28.64485982 112.31643721 30.92314847 114.78881836 33.22460938 C115.89870117 34.23587891 115.89870117 34.23587891 117.03100586 35.26757812 C127.53473756 45.22930232 136.07034926 57.43655045 141.72387695 70.77587891 C142.79828512 73.33287539 142.79828512 73.33287539 144.32641602 76.12255859 C150.51088521 89.37761345 149.7024446 103.64369615 149.57104492 117.95849609 C149.53698057 121.70851442 149.55706914 125.45596664 149.59170151 129.20589542 C149.72020219 145.61555736 149.14633399 160.83747647 142.78881836 176.22460938 C142.47089325 177.00954773 142.15296814 177.79448608 141.82540894 178.60321045 C128.72779998 210.65900924 109.10367991 238.93162738 85.56225586 264.20507812 C83.50141107 266.42286848 81.51657608 268.69479876 79.54272461 270.99023438 C75.35272208 275.79745301 70.86962937 280.29033122 66.35131836 284.78710938 C65.5437207 285.59857422 64.73612305 286.41003906 63.90405273 287.24609375 C59.02765953 292.11462814 54.01307367 296.73445516 48.78881836 301.22460938 C47.18113463 302.67906455 45.57642121 304.13681832 43.97631836 305.59960938 C38.7271702 310.33022466 33.29465578 314.79738031 27.78881836 319.22460938 C26.57388615 320.2088752 25.35904716 321.19325609 24.14428711 322.17773438 C16.83847302 328.07951466 9.46056071 333.80175615 1.78881836 339.22460938 C2.22194336 341.10212891 2.22194336 341.10212891 2.66381836 343.01757812 C7.43932095 365.25085663 7.98571247 388.22422046 1.78881836 410.22460938 C1.4673584 411.37727295 1.4673584 411.37727295 1.1394043 412.55322266 C-7.15593649 441.38164496 -24.49826203 466.03894531 -44.21118164 488.22460938 C-44.98776123 489.11188721 -44.98776123 489.11188721 -45.7800293 490.01708984 C-60.39685255 506.69032393 -60.39685255 506.69032393 -70.25024414 507.46289062 C-79.13313208 507.64674125 -85.7772864 507.34344446 -92.46508789 501.13085938 C-97.46951017 495.75938644 -100.40035476 491.39803553 -100.55493164 483.90039062 C-100.58296875 482.88090332 -100.61100586 481.86141602 -100.63989258 480.81103516 C-100.66341797 479.73063965 -100.68694336 478.65024414 -100.71118164 477.53710938 C-101.50332342 453.19452233 -103.89692587 427.81866767 -118.21118164 407.22460938 C-118.91243164 407.36898438 -119.61368164 407.51335937 -120.33618164 407.66210938 C-123.28674305 408.23939313 -126.24388315 408.74156078 -129.21118164 409.22460938 C-129.23696289 409.8046875 -129.26274414 410.38476562 -129.28930664 410.98242188 C-129.68528626 416.43614121 -130.47247892 419.99397209 -134.21118164 424.22460938 C-139.27001271 428.14778449 -143.13187813 428.66739501 -149.46508789 428.65820312 C-155.38705699 427.72315537 -159.29565734 424.51515448 -163.43695068 420.37306213 C-164.17143791 419.64453652 -164.17143791 419.64453652 -164.92076325 418.90129322 C-166.54917179 417.28245985 -168.16670162 415.65318867 -169.78442383 414.02368164 C-170.95383448 412.85670047 -172.1238903 411.6903655 -173.29454041 410.52462769 C-176.46438629 407.36417128 -179.62476542 404.19440326 -182.78324413 401.02259183 C-186.09136818 397.70313752 -189.40721583 394.39141426 -192.72198486 391.07859802 C-198.28529237 385.5161728 -203.84259438 379.94780309 -209.39624023 374.37573242 C-215.8178655 367.93292498 -222.24829143 361.49900745 -228.68363261 355.069902 C-234.87560293 348.88362457 -241.06188958 342.69169491 -247.24539948 336.49696159 C-249.8767817 333.86093399 -252.51003963 331.22680132 -255.14479828 328.59414864 C-258.24548706 325.49534237 -261.34113868 322.39158992 -264.43295479 319.28393173 C-265.56884586 318.14379578 -266.70644041 317.00535407 -267.84584618 315.86873055 C-269.39968781 314.31810835 -270.94724681 312.76147574 -272.49334717 311.20314026 C-273.36125759 310.33317697 -274.22916801 309.46321367 -275.12337875 308.56688786 C-279.50816778 303.64765096 -279.64912306 299.64179079 -279.52368164 293.20507812 C-278.93543471 287.59467305 -276.77359162 284.60534378 -272.52368164 280.84960938 C-268.27550093 278.7655962 -264.92061035 278.5100293 -260.21118164 278.22460938 C-259.55118164 274.59460938 -258.89118164 270.96460938 -258.21118164 267.22460938 C-276.8179518 255.01391646 -298.67577375 250.51953822 -320.69165039 250.04882812 C-321.7931543 250.02498047 -322.8946582 250.00113281 -324.02954102 249.9765625 C-326.28715669 249.93337333 -328.54503337 249.90224404 -330.80297852 249.8828125 C-339.35235082 249.66694461 -345.88441132 248.17087888 -352.02368164 241.91210938 C-357.52684915 235.99526413 -359.38967558 229.18543899 -359.21118164 221.22460938 C-357.01413727 207.12513045 -345.56920096 197.94128102 -335.21118164 189.22460938 C-334.65785156 188.75748535 -334.10452148 188.29036133 -333.53442383 187.80908203 C-324.16991514 179.93985016 -314.62456228 172.6523556 -304.21118164 166.22460938 C-303.58808105 165.83821289 -302.96498047 165.45181641 -302.32299805 165.05371094 C-267.97625268 144.04593487 -229.43088587 138.1770154 -190.21118164 147.22460938 C-189.86450439 146.76723389 -189.51782715 146.3098584 -189.16064453 145.83862305 C-182.32998369 136.83759848 -175.46764086 127.88922763 -168.21118164 119.22460938 C-167.7915918 118.72010254 -167.37200195 118.2155957 -166.93969727 117.69580078 C-161.07215872 110.64404734 -155.05101262 103.77072821 -148.81274414 97.04492188 C-146.49272006 94.5298207 -144.22323636 91.97916024 -141.96118164 89.41210938 C-133.98665306 80.53236404 -125.53281104 71.76934449 -116.39868164 64.07226562 C-114.5616153 62.52060066 -112.75848743 60.94279883 -110.96118164 59.34570312 C-81.57200908 33.33644207 -48.03739043 12.37581657 -10.21118164 1.22460938 C-9.3489801 0.96508484 -9.3489801 0.96508484 -8.46936035 0.70031738 C-5.61711655 0.0994636 -2.91544155 0.04978875 0 0 Z M-93.48071289 91.67773438 C-96.04402218 94.06868954 -98.64937818 96.40105027 -101.27368164 98.72460938 C-108.74567865 105.4397964 -115.88648126 112.49760368 -122.41040039 120.14257812 C-124.58442366 122.65614516 -126.83508652 125.09237166 -129.08618164 127.53710938 C-134.00695466 132.93958457 -138.63818654 138.52698518 -143.21118164 144.22460938 C-144.13507613 145.35659724 -145.05958454 146.48808424 -145.98461914 147.61914062 C-179.3402378 188.59288097 -207.84935696 235.28674201 -226.33618164 284.84960938 C-226.60736816 285.57639893 -226.87855469 286.30318848 -227.15795898 287.05200195 C-227.63271485 288.37546522 -228.08664622 289.70673617 -228.51168633 291.04699326 C-228.97177077 292.47929348 -229.47159608 293.89953017 -230.01313972 295.30305862 C-231.10000068 298.65600458 -231.80112404 301.04246644 -230.17870712 304.29351044 C-228.39753861 306.50384629 -226.4984107 308.46940067 -224.46850586 310.45410156 C-223.35668945 311.60446899 -223.35668945 311.60446899 -222.22241211 312.77807617 C-219.7645146 315.30477188 -217.26803671 317.78867505 -214.76586914 320.27148438 C-213.04164969 322.01327258 -211.31877733 323.75639524 -209.59719849 325.50079346 C-205.98176778 329.15049842 -202.34613978 332.77853006 -198.69604492 336.39355469 C-194.02161461 341.02771974 -189.40871691 345.71815601 -184.81019402 350.42750168 C-181.26585725 354.04163319 -177.68727029 357.62025038 -174.09778214 361.18949127 C-172.38217814 362.9051485 -170.67821059 364.63252446 -168.98635483 366.37160492 C-160.6318355 375.83208078 -160.6318355 375.83208078 -149.61058044 380.63645935 C-146.41299926 379.87821343 -144.06269617 378.83378005 -141.21118164 377.22460938 C-139.29931026 376.51452788 -137.37939211 375.82544048 -135.44946289 375.16601562 C-133.46987625 374.38390957 -131.4947262 373.59049999 -129.52368164 372.78710938 C-128.45279297 372.35390381 -127.3819043 371.92069824 -126.27856445 371.47436523 C-114.3411778 366.56783792 -102.7484033 360.99994688 -91.21118164 355.22460938 C-90.3147998 354.78036621 -89.41841797 354.33612305 -88.49487305 353.87841797 C-65.88298652 342.6211616 -44.64260338 329.03865342 -24.21118164 314.22460938 C-23.41131836 313.65000977 -22.61145508 313.07541016 -21.78735352 312.48339844 C-10.21824154 304.16606974 0.9227306 295.43998446 11.78881836 286.22460938 C12.74715576 285.41491699 12.74715576 285.41491699 13.72485352 284.58886719 C29.46500434 271.25250453 45.41652841 257.29165994 58.80444336 241.54492188 C60.3968632 239.68291915 62.0122075 237.85258512 63.64819336 236.02929688 C89.79890226 206.69210672 116.10518296 167.85146354 117.78881836 127.22460938 C117.8287793 126.54011719 117.86874023 125.855625 117.90991211 125.15039062 C118.69705306 100.10078748 108.45768012 78.51829868 92.15991211 60.28320312 C75.64555815 42.99962161 54.3304493 32.41998834 30.36035156 31.75390625 C-17.56675518 31.33898288 -59.64338405 60.07796169 -93.48071289 91.67773438 Z M-309.21118164 214.22460938 C-309.21118164 214.55460937 -309.21118164 214.88460937 -309.21118164 215.22460938 C-308.11785522 215.36709106 -308.11785522 215.36709106 -307.00244141 215.51245117 C-286.00855567 218.29851855 -268.19195237 222.4435375 -249.03735352 231.39013672 C-246.79245864 232.41594563 -244.51515204 233.34021129 -242.21118164 234.22460938 C-241.60532227 233.061875 -240.99946289 231.89914063 -240.37524414 230.70117188 C-232.471257 215.57682874 -224.53869357 200.50860897 -215.25805664 186.1730957 C-212.97957685 182.95938043 -212.97957685 182.95938043 -212.21118164 179.22460938 C-245.29831366 168.19556537 -285.98220405 193.10735702 -309.21118164 214.22460938 Z M-36.00805664 363.42773438 C-36.79124268 363.90774902 -37.57442871 364.38776367 -38.38134766 364.88232422 C-39.23269287 365.40777832 -40.08403809 365.93323242 -40.96118164 366.47460938 C-50.98819278 372.58262877 -61.22247257 378.24215736 -71.56323242 383.79785156 C-76.12279144 386.25461561 -80.66654683 388.74037586 -85.21118164 391.22460938 C-84.03594574 394.2118958 -82.81313919 397.1505358 -81.44165039 400.05273438 C-72.75318145 418.75474352 -67.8452808 437.63496 -66.21118164 458.22460938 C-46.63404986 444.27184694 -33.63722265 413.19058477 -29.60375977 390.19042969 C-28.94310939 385.19939688 -28.96158599 380.25108877 -29.02368164 375.22460938 C-29.02432617 374.20238281 -29.0249707 373.18015625 -29.02563477 372.12695312 C-29.00754379 366.58590188 -29.00754379 366.58590188 -30.21118164 361.22460938 C-32.78174432 361.22460938 -33.82628762 362.07448524 -36.00805664 363.42773438 Z " fill="#0066FF" transform="translate(363.211181640625,-0.224609375)"/>
<path d="M0 0 C18.98651475 -0.64983607 37.41795633 6.0007038 51.75 18.41015625 C66.33073223 32.12380268 74.66058544 48.96535023 75.78515625 69.015625 C76.37925769 90.22246345 68.64674388 109.33685059 54.19140625 124.74609375 C37.81159967 140.15358304 18.92017549 144.92216493 -3.04296875 144.53515625 C-16.19434493 143.98546446 -27.53635594 139.6421146 -38.375 132.16015625 C-39.23480469 131.57621094 -40.09460938 130.99226562 -40.98046875 130.390625 C-55.33371337 119.8204061 -65.52186184 102.683367 -68.375 85.16015625 C-71.20648247 65.07804528 -67.00525407 45.91136367 -55.375 29.16015625 C-43.29494594 13.4795217 -25.98884295 3.38876732 -6.375 0.47265625 C-4.25183069 0.27146884 -2.12785149 0.14348999 0 0 Z M-19.375 43.16015625 C-20.19742188 43.7634375 -21.01984375 44.36671875 -21.8671875 44.98828125 C-24.52898623 47.29351504 -26.19097604 49.49924627 -28.0625 52.47265625 C-28.64386719 53.37628906 -29.22523438 54.27992188 -29.82421875 55.2109375 C-34.50017576 64.10350058 -35.07988829 75.46933809 -32.25 85.09765625 C-28.20853654 95.11672614 -19.86797499 102.85564334 -10.234375 107.43359375 C-1.14490533 110.98536131 10.25847128 110.2500741 19.12890625 106.48046875 C29.83078098 100.8196962 36.00637977 92.58737802 39.625 81.16015625 C42.26735476 71.31137943 39.81463876 61.64116488 34.9375 52.91015625 C29.73782591 44.82177433 22.40848401 38.97808841 13.07421875 36.4765625 C1.331171 33.95398187 -9.67410828 35.7958234 -19.375 43.16015625 Z " fill="#66B3FF" transform="translate(327.375,108.83984375)"/>
<path d="M0 0 C12.36319082 10.5263739 20.92413736 25.41719936 22.67871094 41.69213867 C22.81058391 44.5311258 22.84287572 47.34568305 22.8125 50.1875 C22.80114014 51.69135254 22.80114014 51.69135254 22.78955078 53.22558594 C22.41648026 70.11451578 15.93102602 84.54058881 4.375 96.875 C-14.89154104 114.72615796 -40.62258085 123.00107116 -66.7109375 123.04296875 C-67.45276276 123.04629715 -68.19458801 123.04962555 -68.95889282 123.05305481 C-70.51685981 123.05808091 -72.07483741 123.06046448 -73.6328125 123.06030273 C-75.9871635 123.06248808 -78.34104412 123.08068676 -80.6953125 123.09960938 C-102.65340286 123.18263551 -102.65340286 123.18263551 -109.625 116.875 C-114.26053503 109.89933957 -114.7813235 102.79947123 -114.828125 94.57421875 C-114.83382507 93.77957718 -114.83952515 92.98493561 -114.84539795 92.16621399 C-114.85481442 90.48443923 -114.86136855 88.80264629 -114.86523438 87.12084961 C-114.87482552 84.60820929 -114.90583157 82.09642915 -114.9375 79.58398438 C-115.11337702 52.82611722 -108.48306208 24.77530385 -89.625 4.875 C-88.95082031 4.15957031 -88.27664062 3.44414062 -87.58203125 2.70703125 C-63.57318841 -20.58109586 -25.68986902 -19.70388012 0 0 Z M-65.5 30.5 C-76.19370741 44.26392025 -79.8564605 61.72149569 -79.6875 78.8125 C-79.68298828 79.68712891 -79.67847656 80.56175781 -79.67382812 81.46289062 C-79.66214834 83.60029047 -79.64421689 85.73765463 -79.625 87.875 C-69.89001718 88.29826012 -60.6443195 88.03411867 -51.0625 86.125 C-50.25522461 85.96805664 -49.44794922 85.81111328 -48.61621094 85.64941406 C-39.74153918 83.74430323 -32.1069357 79.93437061 -24.625 74.875 C-23.75875 74.318125 -22.8925 73.76125 -22 73.1875 C-15.47893127 66.83803835 -12.51553014 59.63151188 -12.3125 50.6875 C-12.4159085 41.44278034 -15.4554783 35.38667822 -21.69140625 28.66796875 C-29.11546926 21.7838376 -35.91803473 20.37937025 -45.87890625 20.47265625 C-53.61466945 21.30350464 -60.14234202 24.89614767 -65.5 30.5 Z " fill="#66B3FF" transform="translate(117.625,386.125)"/>
</svg>
